<svg xmlns="http://www.w3.org/2000/svg" viewBox="0 0 62.4 56.13"><defs><linearGradient id="a" x1="64.01" y1="24.01" x2="32.99" y2="48.23" gradientUnits="userSpaceOnUse"><stop offset=".18" stop-color="#0052cc"/><stop offset="1" stop-color="#2684ff"/></linearGradient></defs><g data-name="Layer 2"><path fill="none" d="M24.7 37.25h13.05l3.15-18.38H21.23l3.47 18.38z"/><path d="M2 0a2 2 0 0 0-2 2.32l8.49 51.54a2.72 2.72 0 0 0 2.66 2.27h40.73a2 2 0 0 0 2-1.68l8.49-52.12A2 2 0 0 0 60.4 0zm35.75 37.25h-13l-3.52-18.38H40.9z" fill="#2684ff"/><path d="M59.67 18.87H40.9l-3.15 18.38h-13L9.4 55.48a2.71 2.71 0 0 0 1.75.66h40.74a2 2 0 0 0 2-1.68z" fill="url(#a)"/></g></svg>