<svg xmlns="http://www.w3.org/2000/svg" width="32" height="32" viewBox="0 0 32 32">
  <path fill="#151513" fill-rule="evenodd" d="M15.9985267,0 C7.16436969,0 0,7.11515178 0,15.8927495 C0,22.9142424 4.58405721,28.8703649 10.9420179,30.9718371 C11.7425335,31.1181792 12.0342552,30.6274455 12.0342552,30.2059803 C12.0342552,29.8293933 12.020504,28.8293891 12.0126462,27.5035299 C7.56217195,28.4635339 6.62316216,25.3727893 6.62316216,25.3727893 C5.89533135,23.536684 4.84631204,23.0479015 4.84631204,23.0479015 C3.3935971,22.0625315 4.95632156,22.0820438 4.95632156,22.0820438 C6.56226404,22.1942394 7.40697996,23.7200994 7.40697996,23.7200994 C8.83415697,26.1484023 11.1522146,25.4469359 12.063722,25.040105 C12.2090917,24.0137592 12.6226097,23.3132685 13.0793456,22.9161936 C9.52662758,22.5152163 5.7912152,21.1513082 5.7912152,15.0615265 C5.7912152,13.3268851 6.41492986,11.907367 7.43841125,10.7971184 C7.27339697,10.3951655 6.72433162,8.77857338 7.5955677,6.59124714 C7.5955677,6.59124714 8.93827312,6.16392828 11.9949661,8.22052226 C13.27088,7.86735005 14.6401056,7.69173956 16.0004911,7.68491026 C17.3598944,7.69173956 18.7281378,7.86735005 20.0060161,8.22052226 C23.0607447,6.16392828 24.4014856,6.59124714 24.4014856,6.59124714 C25.2746861,8.77857338 24.7256208,10.3951655 24.5615888,10.7971184 C25.5870346,11.907367 26.2058381,13.3268851 26.2058381,15.0615265 C26.2058381,21.166918 22.4645324,22.5103383 18.9010099,22.9035106 C19.4746309,23.3942444 19.9863716,24.3640046 19.9863716,25.8469376 C19.9863716,27.970849 19.966727,29.6850025 19.966727,30.2059803 C19.966727,30.6313479 20.255502,31.1259841 21.0668222,30.9708615 C27.4198717,28.8645112 32,22.9122912 32,15.8927495 C32,7.11515178 24.8356303,0 15.9985267,0"/>
</svg>
